<svg width="2526" height="1088" xmlns="http://www.w3.org/2000/svg" xmlns:xlink="http://www.w3.org/1999/xlink" xml:space="preserve" overflow="hidden"><g transform="translate(-397 -344)"><rect x="1317.5" y="497.5" width="676" height="576" stroke="#000000" stroke-width="6.875" stroke-miterlimit="8" fill="none"/><text font-family="Arial,Arial_MSFontService,sans-serif" font-weight="700" font-size="73" transform="matrix(1 0 0 1 1357.72 445)">Learning Control</text><path d="M1353.01 735.039 1504.01 537.039" stroke="#505050" stroke-width="2.29167" stroke-miterlimit="8" fill="none" fill-rule="evenodd"/><path d="M1353.01 735.038 1504.01 591.038" stroke="#505050" stroke-width="2.29167" stroke-miterlimit="8" fill="none" fill-rule="evenodd"/><path d="M1353.01 735.036 1504.01 646.036" stroke="#505050" stroke-width="2.29167" stroke-miterlimit="8" fill="none" fill-rule="evenodd"/><path d="M1353.01 735.035 1504.01 700.035" stroke="#505050" stroke-width="2.29167" stroke-miterlimit="8" fill="none" fill-rule="evenodd"/><path d="M1353.01 735.033 1504.01 755.033" stroke="#505050" stroke-width="2.29167" stroke-miterlimit="8" fill="none" fill-rule="evenodd"/><path d="M1353.01 735.031 1504.01 809.032" stroke="#505050" stroke-width="2.29167" stroke-miterlimit="8" fill="none" fill-rule="evenodd"/><path d="M1353.01 735.03 1504.01 864.03" stroke="#505050" stroke-width="2.29167" stroke-miterlimit="8" fill="none" fill-rule="evenodd"/><path d="M1353.01 735.029 1504.01 918.029" stroke="#505050" stroke-width="2.29167" stroke-miterlimit="8" fill="none" fill-rule="evenodd"/><path d="M1353.01 735.027 1504.01 973.028" stroke="#505050" stroke-width="2.29167" stroke-miterlimit="8" fill="none" fill-rule="evenodd"/><path d="M1353.01 735.026 1504.01 1027.03" stroke="#505050" stroke-width="2.29167" stroke-miterlimit="8" fill="none" fill-rule="evenodd"/><path d="M1353.01 758.038 1504.01 537.038" stroke="#505050" stroke-width="2.29167" stroke-miterlimit="8" fill="none" fill-rule="evenodd"/><path d="M1353.01 758.037 1504.01 591.037" stroke="#505050" stroke-width="2.29167" stroke-miterlimit="8" fill="none" fill-rule="evenodd"/><path d="M1353.01 758.036 1504.01 646.035" stroke="#505050" stroke-width="2.29167" stroke-miterlimit="8" fill="none" fill-rule="evenodd"/><path d="M1353.01 758.034 1504.01 700.034" stroke="#505050" stroke-width="2.29167" stroke-miterlimit="8" fill="none" fill-rule="evenodd"/><path d="M1353.01 758.027 1504.01 755.027" stroke="#505050" stroke-width="2.29167" stroke-miterlimit="8" fill="none" fill-rule="evenodd"/><path d="M1353.01 758.031 1504.01 809.031" stroke="#505050" stroke-width="2.29167" stroke-miterlimit="8" fill="none" fill-rule="evenodd"/><path d="M1353.01 758.03 1504.01 864.03" stroke="#505050" stroke-width="2.29167" stroke-miterlimit="8" fill="none" fill-rule="evenodd"/><path d="M1353.01 758.028 1504.01 918.029" stroke="#505050" stroke-width="2.29167" stroke-miterlimit="8" fill="none" fill-rule="evenodd"/><path d="M1353.01 758.027 1504.01 973.027" stroke="#505050" stroke-width="2.29167" stroke-miterlimit="8" fill="none" fill-rule="evenodd"/><path d="M1353.01 758.025 1504.01 1027.03" stroke="#505050" stroke-width="2.29167" stroke-miterlimit="8" fill="none" fill-rule="evenodd"/><path d="M1353.01 782.038 1504.01 537.038" stroke="#505050" stroke-width="2.29167" stroke-miterlimit="8" fill="none" fill-rule="evenodd"/><path d="M1353.01 782.036 1504.01 591.036" stroke="#505050" stroke-width="2.29167" stroke-miterlimit="8" fill="none" fill-rule="evenodd"/><path d="M1353.01 782.035 1504.01 646.035" stroke="#505050" stroke-width="2.29167" stroke-miterlimit="8" fill="none" fill-rule="evenodd"/><path d="M1353.01 782.034 1504.01 700.033" stroke="#505050" stroke-width="2.29167" stroke-miterlimit="8" fill="none" fill-rule="evenodd"/><path d="M1353.01 782.032 1504.01 755.032" stroke="#505050" stroke-width="2.29167" stroke-miterlimit="8" fill="none" fill-rule="evenodd"/><path d="M1353.01 782.03 1504.01 809.03" stroke="#505050" stroke-width="2.29167" stroke-miterlimit="8" fill="none" fill-rule="evenodd"/><path d="M1353.01 782.029 1504.01 864.029" stroke="#505050" stroke-width="2.29167" stroke-miterlimit="8" fill="none" fill-rule="evenodd"/><path d="M1353.01 782.028 1504.01 918.028" stroke="#505050" stroke-width="2.29167" stroke-miterlimit="8" fill="none" fill-rule="evenodd"/><path d="M1353.01 782.026 1504.01 973.027" stroke="#505050" stroke-width="2.29167" stroke-miterlimit="8" fill="none" fill-rule="evenodd"/><path d="M1353.01 782.025 1504.01 1027.02" stroke="#505050" stroke-width="2.29167" stroke-miterlimit="8" fill="none" fill-rule="evenodd"/><path d="M1353.01 806.037 1504.01 537.037" stroke="#505050" stroke-width="2.29167" stroke-miterlimit="8" fill="none" fill-rule="evenodd"/><path d="M1353.01 806.036 1504.01 591.036" stroke="#505050" stroke-width="2.29167" stroke-miterlimit="8" fill="none" fill-rule="evenodd"/><path d="M1353.01 806.034 1504.01 646.034" stroke="#505050" stroke-width="2.29167" stroke-miterlimit="8" fill="none" fill-rule="evenodd"/><path d="M1353.01 806.033 1504.01 700.033" stroke="#505050" stroke-width="2.29167" stroke-miterlimit="8" fill="none" fill-rule="evenodd"/><path d="M1353.01 806.032 1504.01 755.031" stroke="#505050" stroke-width="2.29167" stroke-miterlimit="8" fill="none" fill-rule="evenodd"/><path d="M1353.01 806.025 1504.01 809.025" stroke="#505050" stroke-width="2.29167" stroke-miterlimit="8" fill="none" fill-rule="evenodd"/><path d="M1353.01 806.028 1504.01 864.028" stroke="#505050" stroke-width="2.29167" stroke-miterlimit="8" fill="none" fill-rule="evenodd"/><path d="M1353.01 806.027 1504.01 918.027" stroke="#505050" stroke-width="2.29167" stroke-miterlimit="8" fill="none" fill-rule="evenodd"/><path d="M1353.01 806.026 1504.01 973.026" stroke="#505050" stroke-width="2.29167" stroke-miterlimit="8" fill="none" fill-rule="evenodd"/><path d="M1353.01 806.024 1504.01 1027.02" stroke="#505050" stroke-width="2.29167" stroke-miterlimit="8" fill="none" fill-rule="evenodd"/><path d="M1353.01 829.037 1504.01 537.036" stroke="#505050" stroke-width="2.29167" stroke-miterlimit="8" fill="none" fill-rule="evenodd"/><path d="M1353.01 829.035 1504.01 591.035" stroke="#505050" stroke-width="2.29167" stroke-miterlimit="8" fill="none" fill-rule="evenodd"/><path d="M1353.01 829.034 1504.01 646.033" stroke="#505050" stroke-width="2.29167" stroke-miterlimit="8" fill="none" fill-rule="evenodd"/><path d="M1353.01 829.032 1504.01 700.032" stroke="#505050" stroke-width="2.29167" stroke-miterlimit="8" fill="none" fill-rule="evenodd"/><path d="M1353.01 829.031 1504.01 755.03" stroke="#505050" stroke-width="2.29167" stroke-miterlimit="8" fill="none" fill-rule="evenodd"/><path d="M1353.01 829.03 1504.01 809.029" stroke="#505050" stroke-width="2.29167" stroke-miterlimit="8" fill="none" fill-rule="evenodd"/><path d="M1353.01 829.029 1504.01 864.028" stroke="#505050" stroke-width="2.29167" stroke-miterlimit="8" fill="none" fill-rule="evenodd"/><path d="M1353.01 829.026 1504.01 918.027" stroke="#505050" stroke-width="2.29167" stroke-miterlimit="8" fill="none" fill-rule="evenodd"/><path d="M1353.01 829.025 1504.01 973.026" stroke="#505050" stroke-width="2.29167" stroke-miterlimit="8" fill="none" fill-rule="evenodd"/><path d="M1353.01 829.024 1504.01 1027.02" stroke="#505050" stroke-width="2.29167" stroke-miterlimit="8" fill="none" fill-rule="evenodd"/><path d="M1504 537.038 1655 541.038" stroke="#505050" stroke-width="2.29167" stroke-miterlimit="8" fill="none" fill-rule="evenodd"/><path d="M1504 537.043 1655 595.043" stroke="#505050" stroke-width="2.29167" stroke-miterlimit="8" fill="none" fill-rule="evenodd"/><path d="M1504 537.041 1655 648.041" stroke="#505050" stroke-width="2.29167" stroke-miterlimit="8" fill="none" fill-rule="evenodd"/><path d="M1504 537.04 1655 702.04" stroke="#505050" stroke-width="2.29167" stroke-miterlimit="8" fill="none" fill-rule="evenodd"/><path d="M1504 537.038 1655 755.038" stroke="#505050" stroke-width="2.29167" stroke-miterlimit="8" fill="none" fill-rule="evenodd"/><path d="M1504 537.037 1655 809.037" stroke="#505050" stroke-width="2.29167" stroke-miterlimit="8" fill="none" fill-rule="evenodd"/><path d="M1504 537.035 1655 862.036" stroke="#505050" stroke-width="2.29167" stroke-miterlimit="8" fill="none" fill-rule="evenodd"/><path d="M1504 537.034 1655 916.034" stroke="#505050" stroke-width="2.29167" stroke-miterlimit="8" fill="none" fill-rule="evenodd"/><path d="M1504 537.033 1655 969.033" stroke="#505050" stroke-width="2.29167" stroke-miterlimit="8" fill="none" fill-rule="evenodd"/><path d="M1504 537.031 1655 1023.03" stroke="#505050" stroke-width="2.29167" stroke-miterlimit="8" fill="none" fill-rule="evenodd"/><path d="M1504 591.043 1655 541.043" stroke="#505050" stroke-width="2.29167" stroke-miterlimit="8" fill="none" fill-rule="evenodd"/><path d="M1504 591.046 1655 595.046" stroke="#505050" stroke-width="2.29167" stroke-miterlimit="8" fill="none" fill-rule="evenodd"/><path d="M1504 591.04 1655 648.04" stroke="#505050" stroke-width="2.29167" stroke-miterlimit="8" fill="none" fill-rule="evenodd"/><path d="M1504 591.039 1655 702.039" stroke="#505050" stroke-width="2.29167" stroke-miterlimit="8" fill="none" fill-rule="evenodd"/><path d="M1504 591.037 1655 755.037" stroke="#505050" stroke-width="2.29167" stroke-miterlimit="8" fill="none" fill-rule="evenodd"/><path d="M1504 591.036 1655 809.036" stroke="#505050" stroke-width="2.29167" stroke-miterlimit="8" fill="none" fill-rule="evenodd"/><path d="M1504 591.034 1655 862.035" stroke="#505050" stroke-width="2.29167" stroke-miterlimit="8" fill="none" fill-rule="evenodd"/><path d="M1504 591.033 1655 916.033" stroke="#505050" stroke-width="2.29167" stroke-miterlimit="8" fill="none" fill-rule="evenodd"/><path d="M1504 591.031 1655 969.032" stroke="#505050" stroke-width="2.29167" stroke-miterlimit="8" fill="none" fill-rule="evenodd"/><path d="M1504 591.03 1655 1023.03" stroke="#505050" stroke-width="2.29167" stroke-miterlimit="8" fill="none" fill-rule="evenodd"/><path d="M1504 646.041 1655 541.041" stroke="#505050" stroke-width="2.29167" stroke-miterlimit="8" fill="none" fill-rule="evenodd"/><path d="M1504 646.04 1655 595.04" stroke="#505050" stroke-width="2.29167" stroke-miterlimit="8" fill="none" fill-rule="evenodd"/><path d="M1504 646.03 1655 648.03" stroke="#505050" stroke-width="2.29167" stroke-miterlimit="8" fill="none" fill-rule="evenodd"/><path d="M1504 646.037 1655 702.037" stroke="#505050" stroke-width="2.29167" stroke-miterlimit="8" fill="none" fill-rule="evenodd"/><path d="M1504 646.035 1655 755.035" stroke="#505050" stroke-width="2.29167" stroke-miterlimit="8" fill="none" fill-rule="evenodd"/><path d="M1504 646.034 1655 809.034" stroke="#505050" stroke-width="2.29167" stroke-miterlimit="8" fill="none" fill-rule="evenodd"/><path d="M1504 646.032 1655 862.033" stroke="#505050" stroke-width="2.29167" stroke-miterlimit="8" fill="none" fill-rule="evenodd"/><path d="M1504 646.031 1655 916.032" stroke="#505050" stroke-width="2.29167" stroke-miterlimit="8" fill="none" fill-rule="evenodd"/><path d="M1504 646.03 1655 969.03" stroke="#505050" stroke-width="2.29167" stroke-miterlimit="8" fill="none" fill-rule="evenodd"/><path d="M1504 646.029 1655 1023.03" stroke="#505050" stroke-width="2.29167" stroke-miterlimit="8" fill="none" fill-rule="evenodd"/><path d="M1504 700.04 1655 541.04" stroke="#505050" stroke-width="2.29167" stroke-miterlimit="8" fill="none" fill-rule="evenodd"/><path d="M1504 700.038 1655 595.038" stroke="#505050" stroke-width="2.29167" stroke-miterlimit="8" fill="none" fill-rule="evenodd"/><path d="M1504 700.037 1655 648.037" stroke="#505050" stroke-width="2.29167" stroke-miterlimit="8" fill="none" fill-rule="evenodd"/><path d="M1504 700.046 1655 702.046" stroke="#505050" stroke-width="2.29167" stroke-miterlimit="8" fill="none" fill-rule="evenodd"/><path d="M1504 700.034 1655 755.034" stroke="#505050" stroke-width="2.29167" stroke-miterlimit="8" fill="none" fill-rule="evenodd"/><path d="M1504 700.033 1655 809.033" stroke="#505050" stroke-width="2.29167" stroke-miterlimit="8" fill="none" fill-rule="evenodd"/><path d="M1504 700.031 1655 862.031" stroke="#505050" stroke-width="2.29167" stroke-miterlimit="8" fill="none" fill-rule="evenodd"/><path d="M1504 700.03 1655 916.03" stroke="#505050" stroke-width="2.29167" stroke-miterlimit="8" fill="none" fill-rule="evenodd"/><path d="M1504 700.028 1655 969.029" stroke="#505050" stroke-width="2.29167" stroke-miterlimit="8" fill="none" fill-rule="evenodd"/><path d="M1504 700.027 1655 1023.03" stroke="#505050" stroke-width="2.29167" stroke-miterlimit="8" fill="none" fill-rule="evenodd"/><path d="M1504 755.038 1655 541.038" stroke="#505050" stroke-width="2.29167" stroke-miterlimit="8" fill="none" fill-rule="evenodd"/><path d="M1504 755.037 1655 595.037" stroke="#505050" stroke-width="2.29167" stroke-miterlimit="8" fill="none" fill-rule="evenodd"/><path d="M1504 755.036 1655 648.036" stroke="#505050" stroke-width="2.29167" stroke-miterlimit="8" fill="none" fill-rule="evenodd"/><path d="M1504 755.034 1655 702.034" stroke="#505050" stroke-width="2.29167" stroke-miterlimit="8" fill="none" fill-rule="evenodd"/><path d="M1504 755.063 1655 756.063" stroke="#505050" stroke-width="2.29167" stroke-miterlimit="8" fill="none" fill-rule="evenodd"/><path d="M1504 755.031 1655 809.031" stroke="#505050" stroke-width="2.29167" stroke-miterlimit="8" fill="none" fill-rule="evenodd"/><path d="M1504 755.03 1655 862.03" stroke="#505050" stroke-width="2.29167" stroke-miterlimit="8" fill="none" fill-rule="evenodd"/><path d="M1504 755.028 1655 916.029" stroke="#505050" stroke-width="2.29167" stroke-miterlimit="8" fill="none" fill-rule="evenodd"/><path d="M1504 755.027 1655 969.027" stroke="#505050" stroke-width="2.29167" stroke-miterlimit="8" fill="none" fill-rule="evenodd"/><path d="M1504 755.026 1655 1023.03" stroke="#505050" stroke-width="2.29167" stroke-miterlimit="8" fill="none" fill-rule="evenodd"/><path d="M1504 809.037 1655 541.037" stroke="#505050" stroke-width="2.29167" stroke-miterlimit="8" fill="none" fill-rule="evenodd"/><path d="M1504 809.035 1655 595.036" stroke="#505050" stroke-width="2.29167" stroke-miterlimit="8" fill="none" fill-rule="evenodd"/><path d="M1504 809.034 1655 648.034" stroke="#505050" stroke-width="2.29167" stroke-miterlimit="8" fill="none" fill-rule="evenodd"/><path d="M1504 809.033 1655 702.032" stroke="#505050" stroke-width="2.29167" stroke-miterlimit="8" fill="none" fill-rule="evenodd"/><path d="M1504 809.031 1655 755.031" stroke="#505050" stroke-width="2.29167" stroke-miterlimit="8" fill="none" fill-rule="evenodd"/><path d="M1504 810.058 1655 809.058" stroke="#505050" stroke-width="2.29167" stroke-miterlimit="8" fill="none" fill-rule="evenodd"/><path d="M1504 809.028 1655 862.029" stroke="#505050" stroke-width="2.29167" stroke-miterlimit="8" fill="none" fill-rule="evenodd"/><path d="M1504 809.027 1655 916.027" stroke="#505050" stroke-width="2.29167" stroke-miterlimit="8" fill="none" fill-rule="evenodd"/><path d="M1504 809.026 1655 969.026" stroke="#505050" stroke-width="2.29167" stroke-miterlimit="8" fill="none" fill-rule="evenodd"/><path d="M1504 809.024 1655 1023.02" stroke="#505050" stroke-width="2.29167" stroke-miterlimit="8" fill="none" fill-rule="evenodd"/><path d="M1504 864.035 1655 541.036" stroke="#505050" stroke-width="2.29167" stroke-miterlimit="8" fill="none" fill-rule="evenodd"/><path d="M1504 864.034 1655 595.034" stroke="#505050" stroke-width="2.29167" stroke-miterlimit="8" fill="none" fill-rule="evenodd"/><path d="M1504 864.033 1655 648.033" stroke="#505050" stroke-width="2.29167" stroke-miterlimit="8" fill="none" fill-rule="evenodd"/><path d="M1504 864.031 1655 702.031" stroke="#505050" stroke-width="2.29167" stroke-miterlimit="8" fill="none" fill-rule="evenodd"/><path d="M1504 864.03 1655 755.03" stroke="#505050" stroke-width="2.29167" stroke-miterlimit="8" fill="none" fill-rule="evenodd"/><path d="M1504 864.028 1655 809.028" stroke="#505050" stroke-width="2.29167" stroke-miterlimit="8" fill="none" fill-rule="evenodd"/><path d="M1504 864.035 1655 862.035" stroke="#505050" stroke-width="2.29167" stroke-miterlimit="8" fill="none" fill-rule="evenodd"/><path d="M1504 864.025 1655 916.026" stroke="#505050" stroke-width="2.29167" stroke-miterlimit="8" fill="none" fill-rule="evenodd"/><path d="M1504 864.024 1655 969.024" stroke="#505050" stroke-width="2.29167" stroke-miterlimit="8" fill="none" fill-rule="evenodd"/><path d="M1504 864.023 1655 1023.02" stroke="#505050" stroke-width="2.29167" stroke-miterlimit="8" fill="none" fill-rule="evenodd"/><path d="M1504 918.034 1655 541.034" stroke="#505050" stroke-width="2.29167" stroke-miterlimit="8" fill="none" fill-rule="evenodd"/><path d="M1504 918.033 1655 595.033" stroke="#505050" stroke-width="2.29167" stroke-miterlimit="8" fill="none" fill-rule="evenodd"/><path d="M1504 918.031 1655 648.031" stroke="#505050" stroke-width="2.29167" stroke-miterlimit="8" fill="none" fill-rule="evenodd"/><path d="M1504 918.03 1655 702.03" stroke="#505050" stroke-width="2.29167" stroke-miterlimit="8" fill="none" fill-rule="evenodd"/><path d="M1504 918.029 1655 755.028" stroke="#505050" stroke-width="2.29167" stroke-miterlimit="8" fill="none" fill-rule="evenodd"/><path d="M1504 918.027 1655 809.027" stroke="#505050" stroke-width="2.29167" stroke-miterlimit="8" fill="none" fill-rule="evenodd"/><path d="M1504 918.026 1655 862.026" stroke="#505050" stroke-width="2.29167" stroke-miterlimit="8" fill="none" fill-rule="evenodd"/><path d="M1504 918.019 1655 916.019" stroke="#505050" stroke-width="2.29167" stroke-miterlimit="8" fill="none" fill-rule="evenodd"/><path d="M1504 918.023 1655 969.023" stroke="#505050" stroke-width="2.29167" stroke-miterlimit="8" fill="none" fill-rule="evenodd"/><path d="M1504 918.022 1655 1023.02" stroke="#505050" stroke-width="2.29167" stroke-miterlimit="8" fill="none" fill-rule="evenodd"/><path d="M1504 973.033 1655 541.033" stroke="#505050" stroke-width="2.29167" stroke-miterlimit="8" fill="none" fill-rule="evenodd"/><path d="M1504 973.031 1655 595.031" stroke="#505050" stroke-width="2.29167" stroke-miterlimit="8" fill="none" fill-rule="evenodd"/><path d="M1504 973.03 1655 648.03" stroke="#505050" stroke-width="2.29167" stroke-miterlimit="8" fill="none" fill-rule="evenodd"/><path d="M1504 973.029 1655 702.028" stroke="#505050" stroke-width="2.29167" stroke-miterlimit="8" fill="none" fill-rule="evenodd"/><path d="M1504 973.027 1655 755.027" stroke="#505050" stroke-width="2.29167" stroke-miterlimit="8" fill="none" fill-rule="evenodd"/><path d="M1504 973.026 1655 809.025" stroke="#505050" stroke-width="2.29167" stroke-miterlimit="8" fill="none" fill-rule="evenodd"/><path d="M1504 973.025 1655 862.024" stroke="#505050" stroke-width="2.29167" stroke-miterlimit="8" fill="none" fill-rule="evenodd"/><path d="M1504 973.023 1655 916.023" stroke="#505050" stroke-width="2.29167" stroke-miterlimit="8" fill="none" fill-rule="evenodd"/><path d="M1504 973.024 1655 969.024" stroke="#505050" stroke-width="2.29167" stroke-miterlimit="8" fill="none" fill-rule="evenodd"/><path d="M1504 973.02 1655 1023.02" stroke="#505050" stroke-width="2.29167" stroke-miterlimit="8" fill="none" fill-rule="evenodd"/><path d="M1504 1027.03 1655 541.031" stroke="#505050" stroke-width="2.29167" stroke-miterlimit="8" fill="none" fill-rule="evenodd"/><path d="M1504 1027.03 1655 595.03" stroke="#505050" stroke-width="2.29167" stroke-miterlimit="8" fill="none" fill-rule="evenodd"/><path d="M1504 1027.03 1655 648.028" stroke="#505050" stroke-width="2.29167" stroke-miterlimit="8" fill="none" fill-rule="evenodd"/><path d="M1504 1027.03 1655 702.027" stroke="#505050" stroke-width="2.29167" stroke-miterlimit="8" fill="none" fill-rule="evenodd"/><path d="M1504 1027.03 1655 755.025" stroke="#505050" stroke-width="2.29167" stroke-miterlimit="8" fill="none" fill-rule="evenodd"/><path d="M1504 1027.02 1655 809.024" stroke="#505050" stroke-width="2.29167" stroke-miterlimit="8" fill="none" fill-rule="evenodd"/><path d="M1504 1027.02 1655 862.023" stroke="#505050" stroke-width="2.29167" stroke-miterlimit="8" fill="none" fill-rule="evenodd"/><path d="M1504 1027.02 1655 916.021" stroke="#505050" stroke-width="2.29167" stroke-miterlimit="8" fill="none" fill-rule="evenodd"/><path d="M1504 1027.02 1655 969.02" stroke="#505050" stroke-width="2.29167" stroke-miterlimit="8" fill="none" fill-rule="evenodd"/><path d="M1504 1027.02 1655 1023.02" stroke="#505050" stroke-width="2.29167" stroke-miterlimit="8" fill="none" fill-rule="evenodd"/><path d="M1654.99 541.043 1806.99 583.043" stroke="#505050" stroke-width="2.29167" stroke-miterlimit="8" fill="none" fill-rule="evenodd"/><path d="M1654.99 595.042 1806.99 583.042" stroke="#505050" stroke-width="2.29167" stroke-miterlimit="8" fill="none" fill-rule="evenodd"/><path d="M1654.99 648.04 1806.99 583.04" stroke="#505050" stroke-width="2.29167" stroke-miterlimit="8" fill="none" fill-rule="evenodd"/><path d="M1654.99 702.039 1806.99 583.039" stroke="#505050" stroke-width="2.29167" stroke-miterlimit="8" fill="none" fill-rule="evenodd"/><path d="M1654.99 755.037 1806.99 583.037" stroke="#505050" stroke-width="2.29167" stroke-miterlimit="8" fill="none" fill-rule="evenodd"/><path d="M1654.99 809.036 1806.99 583.036" stroke="#505050" stroke-width="2.29167" stroke-miterlimit="8" fill="none" fill-rule="evenodd"/><path d="M1654.99 862.035 1806.99 583.034" stroke="#505050" stroke-width="2.29167" stroke-miterlimit="8" fill="none" fill-rule="evenodd"/><path d="M1654.99 916.033 1806.99 583.033" stroke="#505050" stroke-width="2.29167" stroke-miterlimit="8" fill="none" fill-rule="evenodd"/><path d="M1654.99 969.032 1806.99 583.031" stroke="#505050" stroke-width="2.29167" stroke-miterlimit="8" fill="none" fill-rule="evenodd"/><path d="M1654.99 1023.03 1806.99 583.03" stroke="#505050" stroke-width="2.29167" stroke-miterlimit="8" fill="none" fill-rule="evenodd"/><path d="M1806.99 583.036 1957.99 782.037" stroke="#505050" stroke-width="2.29167" stroke-miterlimit="8" fill="none" fill-rule="evenodd"/><path d="M1654.99 541.042 1806.99 627.042" stroke="#505050" stroke-width="2.29167" stroke-miterlimit="8" fill="none" fill-rule="evenodd"/><path d="M1654.99 541.041 1806.99 671.041" stroke="#505050" stroke-width="2.29167" stroke-miterlimit="8" fill="none" fill-rule="evenodd"/><path d="M1654.99 541.04 1806.99 716.04" stroke="#505050" stroke-width="2.29167" stroke-miterlimit="8" fill="none" fill-rule="evenodd"/><path d="M1654.99 541.038 1806.99 760.038" stroke="#505050" stroke-width="2.29167" stroke-miterlimit="8" fill="none" fill-rule="evenodd"/><path d="M1654.99 541.037 1806.99 804.037" stroke="#505050" stroke-width="2.29167" stroke-miterlimit="8" fill="none" fill-rule="evenodd"/><path d="M1654.99 541.036 1806.99 848.036" stroke="#505050" stroke-width="2.29167" stroke-miterlimit="8" fill="none" fill-rule="evenodd"/><path d="M1654.99 541.035 1806.99 893.035" stroke="#505050" stroke-width="2.29167" stroke-miterlimit="8" fill="none" fill-rule="evenodd"/><path d="M1654.99 541.034 1806.99 937.034" stroke="#505050" stroke-width="2.29167" stroke-miterlimit="8" fill="none" fill-rule="evenodd"/><path d="M1654.99 541.033 1806.99 981.032" stroke="#505050" stroke-width="2.29167" stroke-miterlimit="8" fill="none" fill-rule="evenodd"/><path d="M1654.99 595.04 1806.99 627.04" stroke="#505050" stroke-width="2.29167" stroke-miterlimit="8" fill="none" fill-rule="evenodd"/><path d="M1654.99 595.039 1806.99 671.039" stroke="#505050" stroke-width="2.29167" stroke-miterlimit="8" fill="none" fill-rule="evenodd"/><path d="M1654.99 595.038 1806.99 716.038" stroke="#505050" stroke-width="2.29167" stroke-miterlimit="8" fill="none" fill-rule="evenodd"/><path d="M1654.99 595.037 1806.99 760.037" stroke="#505050" stroke-width="2.29167" stroke-miterlimit="8" fill="none" fill-rule="evenodd"/><path d="M1654.99 595.036 1806.99 804.036" stroke="#505050" stroke-width="2.29167" stroke-miterlimit="8" fill="none" fill-rule="evenodd"/><path d="M1654.99 595.034 1806.99 848.035" stroke="#505050" stroke-width="2.29167" stroke-miterlimit="8" fill="none" fill-rule="evenodd"/><path d="M1654.99 595.033 1806.99 893.034" stroke="#505050" stroke-width="2.29167" stroke-miterlimit="8" fill="none" fill-rule="evenodd"/><path d="M1654.99 595.032 1806.99 937.032" stroke="#505050" stroke-width="2.29167" stroke-miterlimit="8" fill="none" fill-rule="evenodd"/><path d="M1654.99 595.031 1806.99 981.031" stroke="#505050" stroke-width="2.29167" stroke-miterlimit="8" fill="none" fill-rule="evenodd"/><path d="M1654.99 648.039 1806.99 627.039" stroke="#505050" stroke-width="2.29167" stroke-miterlimit="8" fill="none" fill-rule="evenodd"/><path d="M1654.99 648.037 1806.99 671.038" stroke="#505050" stroke-width="2.29167" stroke-miterlimit="8" fill="none" fill-rule="evenodd"/><path d="M1654.99 648.037 1806.99 716.037" stroke="#505050" stroke-width="2.29167" stroke-miterlimit="8" fill="none" fill-rule="evenodd"/><path d="M1654.99 648.035 1806.99 760.036" stroke="#505050" stroke-width="2.29167" stroke-miterlimit="8" fill="none" fill-rule="evenodd"/><path d="M1654.99 648.034 1806.99 804.034" stroke="#505050" stroke-width="2.29167" stroke-miterlimit="8" fill="none" fill-rule="evenodd"/><path d="M1654.99 648.033 1806.99 848.033" stroke="#505050" stroke-width="2.29167" stroke-miterlimit="8" fill="none" fill-rule="evenodd"/><path d="M1654.99 648.032 1806.99 893.032" stroke="#505050" stroke-width="2.29167" stroke-miterlimit="8" fill="none" fill-rule="evenodd"/><path d="M1654.99 648.031 1806.99 937.031" stroke="#505050" stroke-width="2.29167" stroke-miterlimit="8" fill="none" fill-rule="evenodd"/><path d="M1654.99 648.029 1806.99 981.03" stroke="#505050" stroke-width="2.29167" stroke-miterlimit="8" fill="none" fill-rule="evenodd"/><path d="M1654.99 702.038 1806.99 627.038" stroke="#505050" stroke-width="2.29167" stroke-miterlimit="8" fill="none" fill-rule="evenodd"/><path d="M1654.99 702.037 1806.99 671.037" stroke="#505050" stroke-width="2.29167" stroke-miterlimit="8" fill="none" fill-rule="evenodd"/><path d="M1654.99 702.035 1806.99 716.036" stroke="#505050" stroke-width="2.29167" stroke-miterlimit="8" fill="none" fill-rule="evenodd"/><path d="M1654.99 702.034 1806.99 760.034" stroke="#505050" stroke-width="2.29167" stroke-miterlimit="8" fill="none" fill-rule="evenodd"/><path d="M1654.99 702.033 1806.99 804.033" stroke="#505050" stroke-width="2.29167" stroke-miterlimit="8" fill="none" fill-rule="evenodd"/><path d="M1654.99 702.031 1806.99 848.032" stroke="#505050" stroke-width="2.29167" stroke-miterlimit="8" fill="none" fill-rule="evenodd"/><path d="M1654.99 702.03 1806.99 893.031" stroke="#505050" stroke-width="2.29167" stroke-miterlimit="8" fill="none" fill-rule="evenodd"/><path d="M1654.99 702.029 1806.99 937.03" stroke="#505050" stroke-width="2.29167" stroke-miterlimit="8" fill="none" fill-rule="evenodd"/><path d="M1654.99 702.028 1806.99 981.028" stroke="#505050" stroke-width="2.29167" stroke-miterlimit="8" fill="none" fill-rule="evenodd"/><path d="M1654.99 755.036 1806.99 627.036" stroke="#505050" stroke-width="2.29167" stroke-miterlimit="8" fill="none" fill-rule="evenodd"/><path d="M1654.99 755.035 1806.99 671.035" stroke="#505050" stroke-width="2.29167" stroke-miterlimit="8" fill="none" fill-rule="evenodd"/><path d="M1654.99 755.033 1806.99 716.033" stroke="#505050" stroke-width="2.29167" stroke-miterlimit="8" fill="none" fill-rule="evenodd"/><path d="M1654.99 755.035 1806.99 760.035" stroke="#505050" stroke-width="2.29167" stroke-miterlimit="8" fill="none" fill-rule="evenodd"/><path d="M1654.99 755.031 1806.99 804.032" stroke="#505050" stroke-width="2.29167" stroke-miterlimit="8" fill="none" fill-rule="evenodd"/><path d="M1654.99 755.03 1806.99 848.03" stroke="#505050" stroke-width="2.29167" stroke-miterlimit="8" fill="none" fill-rule="evenodd"/><path d="M1654.99 755.029 1806.99 893.03" stroke="#505050" stroke-width="2.29167" stroke-miterlimit="8" fill="none" fill-rule="evenodd"/><path d="M1654.99 755.028 1806.99 937.028" stroke="#505050" stroke-width="2.29167" stroke-miterlimit="8" fill="none" fill-rule="evenodd"/><path d="M1654.99 755.027 1806.99 981.027" stroke="#505050" stroke-width="2.29167" stroke-miterlimit="8" fill="none" fill-rule="evenodd"/><path d="M1654.99 809.035 1806.99 627.035" stroke="#505050" stroke-width="2.29167" stroke-miterlimit="8" fill="none" fill-rule="evenodd"/><path d="M1654.99 809.034 1806.99 671.034" stroke="#505050" stroke-width="2.29167" stroke-miterlimit="8" fill="none" fill-rule="evenodd"/><path d="M1654.99 809.032 1806.99 716.032" stroke="#505050" stroke-width="2.29167" stroke-miterlimit="8" fill="none" fill-rule="evenodd"/><path d="M1654.99 809.031 1806.99 760.031" stroke="#505050" stroke-width="2.29167" stroke-miterlimit="8" fill="none" fill-rule="evenodd"/><path d="M1654.99 809.032 1806.99 804.032" stroke="#505050" stroke-width="2.29167" stroke-miterlimit="8" fill="none" fill-rule="evenodd"/><path d="M1654.99 809.028 1806.99 848.028" stroke="#505050" stroke-width="2.29167" stroke-miterlimit="8" fill="none" fill-rule="evenodd"/><path d="M1654.99 809.028 1806.99 893.028" stroke="#505050" stroke-width="2.29167" stroke-miterlimit="8" fill="none" fill-rule="evenodd"/><path d="M1654.99 809.026 1806.99 937.027" stroke="#505050" stroke-width="2.29167" stroke-miterlimit="8" fill="none" fill-rule="evenodd"/><path d="M1654.99 809.025 1806.99 981.026" stroke="#505050" stroke-width="2.29167" stroke-miterlimit="8" fill="none" fill-rule="evenodd"/><path d="M1654.99 862.033 1806.99 627.033" stroke="#505050" stroke-width="2.29167" stroke-miterlimit="8" fill="none" fill-rule="evenodd"/><path d="M1654.99 862.032 1806.99 671.032" stroke="#505050" stroke-width="2.29167" stroke-miterlimit="8" fill="none" fill-rule="evenodd"/><path d="M1654.99 862.031 1806.99 716.031" stroke="#505050" stroke-width="2.29167" stroke-miterlimit="8" fill="none" fill-rule="evenodd"/><path d="M1654.99 862.03 1806.99 760.03" stroke="#505050" stroke-width="2.29167" stroke-miterlimit="8" fill="none" fill-rule="evenodd"/><path d="M1654.99 862.029 1806.99 804.029" stroke="#505050" stroke-width="2.29167" stroke-miterlimit="8" fill="none" fill-rule="evenodd"/><path d="M1654.99 862.028 1806.99 848.028" stroke="#505050" stroke-width="2.29167" stroke-miterlimit="8" fill="none" fill-rule="evenodd"/><path d="M1654.99 862.027 1806.99 893.027" stroke="#505050" stroke-width="2.29167" stroke-miterlimit="8" fill="none" fill-rule="evenodd"/><path d="M1654.99 862.025 1806.99 937.025" stroke="#505050" stroke-width="2.29167" stroke-miterlimit="8" fill="none" fill-rule="evenodd"/><path d="M1654.99 862.024 1806.99 981.024" stroke="#505050" stroke-width="2.29167" stroke-miterlimit="8" fill="none" fill-rule="evenodd"/><path d="M1654.99 916.032 1806.99 627.032" stroke="#505050" stroke-width="2.29167" stroke-miterlimit="8" fill="none" fill-rule="evenodd"/><path d="M1654.99 916.031 1806.99 671.031" stroke="#505050" stroke-width="2.29167" stroke-miterlimit="8" fill="none" fill-rule="evenodd"/><path d="M1654.99 916.03 1806.99 716.03" stroke="#505050" stroke-width="2.29167" stroke-miterlimit="8" fill="none" fill-rule="evenodd"/><path d="M1654.99 916.029 1806.99 760.029" stroke="#505050" stroke-width="2.29167" stroke-miterlimit="8" fill="none" fill-rule="evenodd"/><path d="M1654.99 916.028 1806.99 804.027" stroke="#505050" stroke-width="2.29167" stroke-miterlimit="8" fill="none" fill-rule="evenodd"/><path d="M1654.99 916.027 1806.99 848.026" stroke="#505050" stroke-width="2.29167" stroke-miterlimit="8" fill="none" fill-rule="evenodd"/><path d="M1654.99 916.025 1806.99 893.025" stroke="#505050" stroke-width="2.29167" stroke-miterlimit="8" fill="none" fill-rule="evenodd"/><path d="M1654.99 916.024 1806.99 937.024" stroke="#505050" stroke-width="2.29167" stroke-miterlimit="8" fill="none" fill-rule="evenodd"/><path d="M1654.99 916.023 1806.99 981.023" stroke="#505050" stroke-width="2.29167" stroke-miterlimit="8" fill="none" fill-rule="evenodd"/><path d="M1654.99 969.031 1806.99 627.03" stroke="#505050" stroke-width="2.29167" stroke-miterlimit="8" fill="none" fill-rule="evenodd"/><path d="M1654.99 969.03 1806.99 671.029" stroke="#505050" stroke-width="2.29167" stroke-miterlimit="8" fill="none" fill-rule="evenodd"/><path d="M1654.99 969.028 1806.99 716.028" stroke="#505050" stroke-width="2.29167" stroke-miterlimit="8" fill="none" fill-rule="evenodd"/><path d="M1654.99 969.027 1806.99 760.027" stroke="#505050" stroke-width="2.29167" stroke-miterlimit="8" fill="none" fill-rule="evenodd"/><path d="M1654.99 969.026 1806.99 804.026" stroke="#505050" stroke-width="2.29167" stroke-miterlimit="8" fill="none" fill-rule="evenodd"/><path d="M1654.99 969.025 1806.99 848.025" stroke="#505050" stroke-width="2.29167" stroke-miterlimit="8" fill="none" fill-rule="evenodd"/><path d="M1654.99 969.024 1806.99 893.023" stroke="#505050" stroke-width="2.29167" stroke-miterlimit="8" fill="none" fill-rule="evenodd"/><path d="M1654.99 969.022 1806.99 937.022" stroke="#505050" stroke-width="2.29167" stroke-miterlimit="8" fill="none" fill-rule="evenodd"/><path d="M1654.99 969.021 1806.99 981.022" stroke="#505050" stroke-width="2.29167" stroke-miterlimit="8" fill="none" fill-rule="evenodd"/><path d="M1654.99 1023.03 1806.99 627.029" stroke="#505050" stroke-width="2.29167" stroke-miterlimit="8" fill="none" fill-rule="evenodd"/><path d="M1654.99 1023.03 1806.99 671.028" stroke="#505050" stroke-width="2.29167" stroke-miterlimit="8" fill="none" fill-rule="evenodd"/><path d="M1654.99 1023.03 1806.99 716.027" stroke="#505050" stroke-width="2.29167" stroke-miterlimit="8" fill="none" fill-rule="evenodd"/><path d="M1654.99 1023.03 1806.99 760.026" stroke="#505050" stroke-width="2.29167" stroke-miterlimit="8" fill="none" fill-rule="evenodd"/><path d="M1654.99 1023.02 1806.99 804.024" stroke="#505050" stroke-width="2.29167" stroke-miterlimit="8" fill="none" fill-rule="evenodd"/><path d="M1654.99 1023.02 1806.99 848.023" stroke="#505050" stroke-width="2.29167" stroke-miterlimit="8" fill="none" fill-rule="evenodd"/><path d="M1654.99 1023.02 1806.99 893.022" stroke="#505050" stroke-width="2.29167" stroke-miterlimit="8" fill="none" fill-rule="evenodd"/><path d="M1654.99 1023.02 1806.99 937.021" stroke="#505050" stroke-width="2.29167" stroke-miterlimit="8" fill="none" fill-rule="evenodd"/><path d="M1654.99 1023.02 1806.99 981.02" stroke="#505050" stroke-width="2.29167" stroke-miterlimit="8" fill="none" fill-rule="evenodd"/><path d="M1806.99 627.035 1957.99 782.036" stroke="#505050" stroke-width="2.29167" stroke-miterlimit="8" fill="none" fill-rule="evenodd"/><path d="M1806.99 671.034 1957.99 782.035" stroke="#505050" stroke-width="2.29167" stroke-miterlimit="8" fill="none" fill-rule="evenodd"/><path d="M1806.99 716.033 1957.99 782.033" stroke="#505050" stroke-width="2.29167" stroke-miterlimit="8" fill="none" fill-rule="evenodd"/><path d="M1806.99 760.032 1957.99 782.032" stroke="#505050" stroke-width="2.29167" stroke-miterlimit="8" fill="none" fill-rule="evenodd"/><path d="M1806.99 804.031 1957.99 782.031" stroke="#505050" stroke-width="2.29167" stroke-miterlimit="8" fill="none" fill-rule="evenodd"/><path d="M1806.99 848.029 1957.99 782.029" stroke="#505050" stroke-width="2.29167" stroke-miterlimit="8" fill="none" fill-rule="evenodd"/><path d="M1806.99 893.029 1957.99 782.029" stroke="#505050" stroke-width="2.29167" stroke-miterlimit="8" fill="none" fill-rule="evenodd"/><path d="M1806.99 937.027 1957.99 782.027" stroke="#505050" stroke-width="2.29167" stroke-miterlimit="8" fill="none" fill-rule="evenodd"/><path d="M1806.99 981.026 1957.99 782.026" stroke="#505050" stroke-width="2.29167" stroke-miterlimit="8" fill="none" fill-rule="evenodd"/><path d="M1365.01 734.533C1365.01 740.884 1359.64 746.033 1353.01 746.033 1346.39 746.033 1341.01 740.884 1341.01 734.533 1341.01 728.181 1346.39 723.033 1353.01 723.033 1359.64 723.033 1365.01 728.181 1365.01 734.533Z" stroke="#333333" stroke-width="2.29167" stroke-miterlimit="8" fill="#FFFFFF" fill-rule="evenodd"/><path d="M1365.01 758.033C1365.01 764.661 1359.64 770.033 1353.01 770.033 1346.39 770.033 1341.01 764.661 1341.01 758.033 1341.01 751.406 1346.39 746.033 1353.01 746.033 1359.64 746.033 1365.01 751.406 1365.01 758.033Z" stroke="#333333" stroke-width="2.29167" stroke-miterlimit="8" fill="#FFFFFF" fill-rule="evenodd"/><path d="M1365.01 782.032C1365.01 788.659 1359.64 794.032 1353.01 794.032 1346.39 794.032 1341.01 788.659 1341.01 782.032 1341.01 775.404 1346.39 770.032 1353.01 770.032 1359.64 770.032 1365.01 775.404 1365.01 782.032Z" stroke="#333333" stroke-width="2.29167" stroke-miterlimit="8" fill="#FFFFFF" fill-rule="evenodd"/><path d="M1365.01 805.529C1365.01 811.881 1359.64 817.029 1353.01 817.029 1346.39 817.029 1341.01 811.881 1341.01 805.529 1341.01 799.178 1346.39 794.029 1353.01 794.029 1359.64 794.029 1365.01 799.178 1365.01 805.529Z" stroke="#333333" stroke-width="2.29167" stroke-miterlimit="8" fill="#FFFFFF" fill-rule="evenodd"/><path d="M1365.01 829.03C1365.01 835.657 1359.64 841.029 1353.01 841.029 1346.39 841.029 1341.01 835.657 1341.01 829.03 1341.01 822.402 1346.39 817.029 1353.01 817.029 1359.64 817.029 1365.01 822.402 1365.01 829.03Z" stroke="#333333" stroke-width="2.29167" stroke-miterlimit="8" fill="#FFFFFF" fill-rule="evenodd"/><path d="M1516.01 537.045C1516.01 543.672 1510.63 549.045 1504.01 549.045 1497.38 549.045 1492.01 543.672 1492.01 537.045 1492.01 530.417 1497.38 525.045 1504.01 525.045 1510.63 525.045 1516.01 530.417 1516.01 537.045Z" stroke="#333333" stroke-width="2.29167" stroke-miterlimit="8" fill="#FFFFFF" fill-rule="evenodd"/><path d="M1516.01 591.042C1516.01 597.669 1510.63 603.042 1504.01 603.042 1497.38 603.042 1492.01 597.669 1492.01 591.042 1492.01 584.414 1497.38 579.042 1504.01 579.042 1510.63 579.042 1516.01 584.414 1516.01 591.042Z" stroke="#333333" stroke-width="2.29167" stroke-miterlimit="8" fill="#FFFFFF" fill-rule="evenodd"/><path d="M1516.01 646.039C1516.01 652.666 1510.63 658.039 1504.01 658.039 1497.38 658.039 1492.01 652.666 1492.01 646.039 1492.01 639.411 1497.38 634.039 1504.01 634.039 1510.63 634.039 1516.01 639.411 1516.01 646.039Z" stroke="#333333" stroke-width="2.29167" stroke-miterlimit="8" fill="#FFFFFF" fill-rule="evenodd"/><path d="M1516.01 700.036C1516.01 706.663 1510.63 712.036 1504.01 712.036 1497.38 712.036 1492.01 706.663 1492.01 700.036 1492.01 693.408 1497.38 688.036 1504.01 688.036 1510.63 688.036 1516.01 693.408 1516.01 700.036Z" stroke="#333333" stroke-width="2.29167" stroke-miterlimit="8" fill="#FFFFFF" fill-rule="evenodd"/><path d="M1516.01 755.033C1516.01 761.66 1510.63 767.033 1504.01 767.033 1497.38 767.033 1492.01 761.66 1492.01 755.033 1492.01 748.406 1497.38 743.033 1504.01 743.033 1510.63 743.033 1516.01 748.406 1516.01 755.033Z" stroke="#333333" stroke-width="2.29167" stroke-miterlimit="8" fill="#FFFFFF" fill-rule="evenodd"/><path d="M1516.01 809.03C1516.01 815.658 1510.63 821.03 1504.01 821.03 1497.38 821.03 1492.01 815.658 1492.01 809.03 1492.01 802.403 1497.38 797.03 1504.01 797.03 1510.63 797.03 1516.01 802.403 1516.01 809.03Z" stroke="#333333" stroke-width="2.29167" stroke-miterlimit="8" fill="#FFFFFF" fill-rule="evenodd"/><path d="M1516.01 864.027C1516.01 870.655 1510.63 876.027 1504.01 876.027 1497.38 876.027 1492.01 870.655 1492.01 864.027 1492.01 857.4 1497.38 852.028 1504.01 852.028 1510.63 852.028 1516.01 857.4 1516.01 864.027Z" stroke="#333333" stroke-width="2.29167" stroke-miterlimit="8" fill="#FFFFFF" fill-rule="evenodd"/><path d="M1516.01 918.025C1516.01 924.652 1510.63 930.024 1504.01 930.024 1497.38 930.024 1492.01 924.652 1492.01 918.025 1492.01 911.397 1497.38 906.025 1504.01 906.025 1510.63 906.025 1516.01 911.397 1516.01 918.025Z" stroke="#333333" stroke-width="2.29167" stroke-miterlimit="8" fill="#FFFFFF" fill-rule="evenodd"/><path d="M1516.01 973.022C1516.01 979.649 1510.63 985.022 1504.01 985.022 1497.38 985.022 1492.01 979.649 1492.01 973.022 1492.01 966.394 1497.38 961.022 1504.01 961.022 1510.63 961.022 1516.01 966.394 1516.01 973.022Z" stroke="#333333" stroke-width="2.29167" stroke-miterlimit="8" fill="#FFFFFF" fill-rule="evenodd"/><path d="M1516.01 1027.02C1516.01 1033.65 1510.63 1039.02 1504.01 1039.02 1497.38 1039.02 1492.01 1033.65 1492.01 1027.02 1492.01 1020.39 1497.38 1015.02 1504.01 1015.02 1510.63 1015.02 1516.01 1020.39 1516.01 1027.02Z" stroke="#333333" stroke-width="2.29167" stroke-miterlimit="8" fill="#FFFFFF" fill-rule="evenodd"/><path d="M1667 541.543C1667 547.894 1661.85 553.043 1655.5 553.043 1649.15 553.043 1644 547.894 1644 541.543 1644 535.192 1649.15 530.043 1655.5 530.043 1661.85 530.043 1667 535.192 1667 541.543Z" stroke="#333333" stroke-width="2.29167" stroke-miterlimit="8" fill="#FFFFFF" fill-rule="evenodd"/><path d="M1667 595.042C1667 601.669 1661.85 607.042 1655.5 607.042 1649.15 607.042 1644 601.669 1644 595.042 1644 588.414 1649.15 583.042 1655.5 583.042 1661.85 583.042 1667 588.414 1667 595.042Z" stroke="#333333" stroke-width="2.29167" stroke-miterlimit="8" fill="#FFFFFF" fill-rule="evenodd"/><path d="M1667 648.039C1667 654.667 1661.85 660.039 1655.5 660.039 1649.15 660.039 1644 654.667 1644 648.039 1644 641.411 1649.15 636.039 1655.5 636.039 1661.85 636.039 1667 641.411 1667 648.039Z" stroke="#333333" stroke-width="2.29167" stroke-miterlimit="8" fill="#FFFFFF" fill-rule="evenodd"/><path d="M1667 702.036C1667 708.663 1661.85 714.036 1655.5 714.036 1649.15 714.036 1644 708.663 1644 702.036 1644 695.409 1649.15 690.036 1655.5 690.036 1661.85 690.036 1667 695.409 1667 702.036Z" stroke="#333333" stroke-width="2.29167" stroke-miterlimit="8" fill="#FFFFFF" fill-rule="evenodd"/><path d="M1667 755.033C1667 761.66 1661.85 767.033 1655.5 767.033 1649.15 767.033 1644 761.66 1644 755.033 1644 748.406 1649.15 743.033 1655.5 743.033 1661.85 743.033 1667 748.406 1667 755.033Z" stroke="#333333" stroke-width="2.29167" stroke-miterlimit="8" fill="#FFFFFF" fill-rule="evenodd"/><path d="M1667 809.03C1667 815.658 1661.85 821.03 1655.5 821.03 1649.15 821.03 1644 815.658 1644 809.03 1644 802.403 1649.15 797.031 1655.5 797.031 1661.85 797.031 1667 802.403 1667 809.03Z" stroke="#333333" stroke-width="2.29167" stroke-miterlimit="8" fill="#FFFFFF" fill-rule="evenodd"/><path d="M1667 862.028C1667 868.655 1661.85 874.028 1655.5 874.028 1649.15 874.028 1644 868.655 1644 862.028 1644 855.4 1649.15 850.028 1655.5 850.028 1661.85 850.028 1667 855.4 1667 862.028Z" stroke="#333333" stroke-width="2.29167" stroke-miterlimit="8" fill="#FFFFFF" fill-rule="evenodd"/><path d="M1667 915.524C1667 921.875 1661.85 927.024 1655.5 927.024 1649.15 927.024 1644 921.875 1644 915.524 1644 909.172 1649.15 904.024 1655.5 904.024 1661.85 904.024 1667 909.172 1667 915.524Z" stroke="#333333" stroke-width="2.29167" stroke-miterlimit="8" fill="#FFFFFF" fill-rule="evenodd"/><path d="M1667 969.022C1667 975.649 1661.85 981.022 1655.5 981.022 1649.15 981.022 1644 975.649 1644 969.022 1644 962.394 1649.15 957.022 1655.5 957.022 1661.85 957.022 1667 962.394 1667 969.022Z" stroke="#333333" stroke-width="2.29167" stroke-miterlimit="8" fill="#FFFFFF" fill-rule="evenodd"/><path d="M1667 1022.52C1667 1028.87 1661.85 1034.02 1655.5 1034.02 1649.15 1034.02 1644 1028.87 1644 1022.52 1644 1016.17 1649.15 1011.02 1655.5 1011.02 1661.85 1011.02 1667 1016.17 1667 1022.52Z" stroke="#333333" stroke-width="2.29167" stroke-miterlimit="8" fill="#FFFFFF" fill-rule="evenodd"/><path d="M1817.99 583.042C1817.99 589.67 1812.84 595.042 1806.49 595.042 1800.14 595.042 1794.99 589.67 1794.99 583.042 1794.99 576.415 1800.14 571.042 1806.49 571.042 1812.84 571.042 1817.99 576.415 1817.99 583.042Z" stroke="#333333" stroke-width="2.29167" stroke-miterlimit="8" fill="#FFFFFF" fill-rule="evenodd"/><path d="M1817.99 627.04C1817.99 633.668 1812.84 639.04 1806.49 639.04 1800.14 639.04 1794.99 633.668 1794.99 627.04 1794.99 620.413 1800.14 615.04 1806.49 615.04 1812.84 615.04 1817.99 620.413 1817.99 627.04Z" stroke="#333333" stroke-width="2.29167" stroke-miterlimit="8" fill="#FFFFFF" fill-rule="evenodd"/><path d="M1817.99 671.536C1817.99 677.887 1812.84 683.036 1806.49 683.036 1800.14 683.036 1794.99 677.887 1794.99 671.536 1794.99 665.185 1800.14 660.036 1806.49 660.036 1812.84 660.036 1817.99 665.185 1817.99 671.536Z" stroke="#333333" stroke-width="2.29167" stroke-miterlimit="8" fill="#FFFFFF" fill-rule="evenodd"/><path d="M1817.99 715.534C1817.99 721.885 1812.84 727.034 1806.49 727.034 1800.14 727.034 1794.99 721.885 1794.99 715.534 1794.99 709.183 1800.14 704.034 1806.49 704.034 1812.84 704.034 1817.99 709.183 1817.99 715.534Z" stroke="#333333" stroke-width="2.29167" stroke-miterlimit="8" fill="#FFFFFF" fill-rule="evenodd"/><path d="M1817.99 760.033C1817.99 766.66 1812.84 772.033 1806.49 772.033 1800.14 772.033 1794.99 766.66 1794.99 760.033 1794.99 753.406 1800.14 748.033 1806.49 748.033 1812.84 748.033 1817.99 753.406 1817.99 760.033Z" stroke="#333333" stroke-width="2.29167" stroke-miterlimit="8" fill="#FFFFFF" fill-rule="evenodd"/><path d="M1817.99 804.031C1817.99 810.658 1812.84 816.031 1806.49 816.031 1800.14 816.031 1794.99 810.658 1794.99 804.031 1794.99 797.403 1800.14 792.031 1806.49 792.031 1812.84 792.031 1817.99 797.403 1817.99 804.031Z" stroke="#333333" stroke-width="2.29167" stroke-miterlimit="8" fill="#FFFFFF" fill-rule="evenodd"/><path d="M1817.99 848.028C1817.99 854.656 1812.84 860.028 1806.49 860.028 1800.14 860.028 1794.99 854.656 1794.99 848.028 1794.99 841.401 1800.14 836.028 1806.49 836.028 1812.84 836.028 1817.99 841.401 1817.99 848.028Z" stroke="#333333" stroke-width="2.29167" stroke-miterlimit="8" fill="#FFFFFF" fill-rule="evenodd"/><path d="M1817.99 892.525C1817.99 898.876 1812.84 904.025 1806.49 904.025 1800.14 904.025 1794.99 898.876 1794.99 892.525 1794.99 886.174 1800.14 881.025 1806.49 881.025 1812.84 881.025 1817.99 886.174 1817.99 892.525Z" stroke="#333333" stroke-width="2.29167" stroke-miterlimit="8" fill="#FFFFFF" fill-rule="evenodd"/><path d="M1817.99 937.024C1817.99 943.651 1812.84 949.024 1806.49 949.024 1800.14 949.024 1794.99 943.651 1794.99 937.024 1794.99 930.396 1800.14 925.023 1806.49 925.023 1812.84 925.023 1817.99 930.396 1817.99 937.024Z" stroke="#333333" stroke-width="2.29167" stroke-miterlimit="8" fill="#FFFFFF" fill-rule="evenodd"/><path d="M1817.99 981.021C1817.99 987.649 1812.84 993.021 1806.49 993.021 1800.14 993.021 1794.99 987.649 1794.99 981.021 1794.99 974.394 1800.14 969.021 1806.49 969.021 1812.84 969.021 1817.99 974.394 1817.99 981.021Z" stroke="#333333" stroke-width="2.29167" stroke-miterlimit="8" fill="#FFFFFF" fill-rule="evenodd"/><path d="M1969.98 782.032C1969.98 788.659 1964.61 794.032 1957.98 794.032 1951.35 794.032 1945.98 788.659 1945.98 782.032 1945.98 775.404 1951.35 770.032 1957.98 770.032 1964.61 770.032 1969.98 775.404 1969.98 782.032Z" stroke="#333333" stroke-width="2.29167" stroke-miterlimit="8" fill="#FFFFFF" fill-rule="evenodd"/><path d="M573.509 731.513 590.47 721.014 592.587 719.84 609.548 711.501 611.67 710.583 630.748 703.382 632.87 702.697 654.07 696.86 656.187 696.372 683.748 691.105 685.87 690.728 736.748 680.965 738.87 680.419 757.948 674.513 760.07 673.729 777.031 666.266 779.148 665.175 802.47 651.829 804.587 650.482 823.67 637.299 825.787 635.725 849.109 617.321 851.232 615.562 887.27 584.283 889.387 582.401 891.509 580.513" stroke="#636EFA" stroke-width="13.2" stroke-miterlimit="8" fill="none" fill-rule="evenodd"/><path d="M6.875-1.50372e-05 6.87529 130.625-6.87471 130.625-6.875 1.50372e-05ZM20.6253 123.75 0.000360892 165-20.6247 123.75Z" transform="matrix(1 0 0 -1 573 731)"/><path d="M573 724.125 857.152 724.125 857.152 737.875 573 737.875ZM850.277 710.375 891.527 731.001 850.277 751.625Z"/><path d="M2381.57 637.279 2387.93 634.731 2390.05 634.365 2396.41 634.69 2398.53 635.218 2404.89 637.97 2407.01 639.363 2417.61 648.523 2419.73 650.566 2462.13 691.675 2464.25 693.243 2483.33 706.565 2485.45 707.627 2491.81 709.386 2493.93 709.513 2506.65 708.335 2508.77 708.021 2517.25 708.184 2519.37 708.294 2527.85 708.161 2529.97 707.662 2553.29 700.319 2555.41 700.052 2570.25 699.825 2572.37 699.872 2578.73 699.343 2580.85 698.699 2587.21 695.332 2589.33 693.73 2597.81 685.249 2599.93 682.939 2674.13 600.854 2676.25 599.513 2697.45 600.268 2699.57 600.999" stroke="#00CC96" stroke-width="13.2" stroke-miterlimit="8" fill="none" fill-rule="evenodd"/><path d="M6.875-1.50372e-05 6.87529 130.625-6.87471 130.625-6.875 1.50372e-05ZM20.6253 123.75 0.000360892 165-20.6247 123.75Z" transform="matrix(1 0 0 -1 2381 731)"/><path d="M2381 724.125 2665.15 724.125 2665.15 737.875 2381 737.875ZM2658.28 710.375 2699.53 731.001 2658.28 751.625Z"/><path d="M573.631 1377.51 681.753 1291.57 683.87 1290.16 702.953 1278.64 705.07 1277.48 724.153 1268.19 726.27 1267.27 745.353 1260.07 747.47 1259.39 766.553 1254.16 768.67 1253.68 796.231 1248.62 798.353 1248.26 857.709 1238.11 859.831 1237.59 876.792 1232.53 878.909 1231.77 891.631 1226.51" stroke="#636EFA" stroke-width="13.2" stroke-miterlimit="8" fill="none" fill-rule="evenodd"/><path d="M6.875-1.50372e-05 6.87529 130.625-6.87471 130.625-6.875 1.50372e-05ZM20.6253 123.75 0.000360892 165-20.6247 123.75Z" transform="matrix(1 0 0 -1 573 1377)"/><path d="M573 1370.13 857.152 1370.13 857.152 1383.88 573 1383.88ZM850.277 1356.38 891.527 1377 850.277 1397.63Z"/><path d="M6.875-1.50372e-05 6.87529 130.625-6.87471 130.625-6.875 1.50372e-05ZM20.6253 123.75 0.000360892 165-20.6247 123.75Z" transform="matrix(1 0 0 -1 573 990)"/><path d="M573 983.125 857.152 983.125 857.152 996.875 573 996.875ZM850.277 969.375 891.527 990 850.277 1010.63Z"/><path d="M573.57 990.547 713.492 990.139 715.609 989.936 730.448 987.689 732.57 987.241 747.409 982.991 749.531 982.217 762.248 976.588 764.37 975.47 777.092 967.641 779.209 966.133 798.292 950.975 800.409 949.135 817.37 933.156 819.492 931.009 838.57 910.175 840.692 907.695 861.892 881.284 864.009 878.479 885.209 848.931 887.331 845.828 891.57 839.547" stroke="#636EFA" stroke-width="13.2" stroke-miterlimit="8" fill="none" fill-rule="evenodd"/><path d="M2381.51 1285.55 2383.63 1286.05 2385.75 1288.46 2392.11 1294.48 2394.23 1295.97 2400.59 1298.79 2402.71 1299.16 2409.07 1300.12 2411.19 1300.93 2421.79 1305.65 2423.91 1305.96 2447.23 1307.27 2449.35 1308.1 2455.71 1312.05 2457.83 1313.85 2483.27 1339.51 2485.39 1341.89 2498.11 1354.83 2500.23 1356.38 2506.59 1359.59 2508.71 1360.17 2515.07 1360.47 2517.19 1360.08 2523.55 1357.47 2525.67 1356.13 2532.03 1350.61 2534.15 1348.37 2544.75 1338.44 2546.87 1337.02 2553.23 1334.2 2555.35 1333.74 2561.71 1333.84 2563.83 1334.35 2570.19 1337.34 2572.31 1338.82 2587.15 1350.71 2589.27 1351.9 2597.75 1355.45 2599.87 1356 2610.47 1357.39 2612.59 1357.51 2646.51 1359.91 2648.63 1360.13 2657.11 1360.55 2659.23 1360.27 2667.71 1357.84 2669.83 1356.98 2678.31 1352.38 2680.43 1351.01 2693.15 1341.38 2695.27 1339.61 2699.51 1335.95" stroke="#00CC96" stroke-width="13.2" stroke-miterlimit="8" fill="none" fill-rule="evenodd"/><path d="M6.875-1.50372e-05 6.87529 130.625-6.87471 130.625-6.875 1.50372e-05ZM20.6253 123.75 0.000360892 165-20.6247 123.75Z" transform="matrix(1 0 0 -1 2381 1377)"/><path d="M2381 1370.13 2665.15 1370.13 2665.15 1383.88 2381 1383.88ZM2658.28 1356.38 2699.53 1377 2658.28 1397.63Z"/><path d="M6.875-1.50372e-05 6.87529 130.625-6.87471 130.625-6.875 1.50372e-05ZM20.6253 123.75 0.000360892 165-20.6247 123.75Z" transform="matrix(1 0 0 -1 2381 990)"/><path d="M2381 983.125 2665.15 983.125 2665.15 996.875 2381 996.875ZM2658.28 969.375 2699.53 990 2658.28 1010.63Z"/><path d="M2381.63 990.547 2513.07 989.873 2515.19 989.147 2521.55 985.634 2523.67 983.985 2530.03 977.678 2532.15 975.094 2542.75 959.751 2544.87 956.58 2551.23 949.124 2553.35 947.335 2559.71 944.042 2561.83 943.119 2578.79 936.499 2580.91 936.22 2589.39 934.966 2591.51 934.089 2595.75 931.307 2597.87 929.391 2604.23 921.679 2606.35 918.868 2625.43 894.048 2627.55 892.23 2644.51 881.406 2646.63 880.018 2682.67 855.331 2684.79 853.618 2697.51 841.835 2699.63 839.547" stroke="#00CC96" stroke-width="13.2" stroke-miterlimit="8" fill="none" fill-rule="evenodd"/><path d="M731.681 1142.07C734.169 1142.07 736.251 1142.94 737.926 1144.69 739.6 1146.44 740.438 1148.65 740.438 1151.33 740.438 1154.01 739.6 1156.22 737.926 1157.97 736.251 1159.72 734.169 1160.59 731.681 1160.59 729.193 1160.59 727.111 1159.72 725.436 1157.97 723.762 1156.22 722.924 1154.01 722.924 1151.33 722.924 1148.65 723.762 1146.44 725.436 1144.69 727.111 1142.94 729.193 1142.07 731.681 1142.07ZM731.681 1103.89C734.169 1103.89 736.251 1104.76 737.926 1106.51 739.6 1108.25 740.438 1110.47 740.438 1113.15 740.438 1115.82 739.6 1118.04 737.926 1119.78 736.251 1121.53 734.169 1122.4 731.681 1122.4 729.193 1122.4 727.111 1121.53 725.436 1119.78 723.762 1118.04 722.924 1115.82 722.924 1113.15 722.924 1110.47 723.762 1108.25 725.436 1106.51 727.111 1104.76 729.193 1103.89 731.681 1103.89ZM731.681 1065.7C734.169 1065.7 736.251 1066.57 737.926 1068.32 739.6 1070.07 740.438 1072.28 740.438 1074.96 740.438 1077.64 739.6 1079.85 737.926 1081.6 736.251 1083.35 734.169 1084.22 731.681 1084.22 729.193 1084.22 727.111 1083.35 725.436 1081.6 723.762 1079.85 722.924 1077.64 722.924 1074.96 722.924 1072.28 723.762 1070.07 725.436 1068.32 727.111 1066.57 729.193 1065.7 731.681 1065.7Z" fill-rule="evenodd"/><text fill="#000000" fill-opacity="0" font-family="Arial,Arial_MSFontService,sans-serif" font-size="94.8896" x="722.924" y="1148.73"></text><path d="M2539.93 1142.07C2542.42 1142.07 2544.5 1142.94 2546.17 1144.69 2547.85 1146.44 2548.68 1148.65 2548.68 1151.33 2548.68 1154.01 2547.85 1156.22 2546.17 1157.97 2544.5 1159.72 2542.42 1160.59 2539.93 1160.59 2537.44 1160.59 2535.36 1159.72 2533.68 1157.97 2532.01 1156.22 2531.17 1154.01 2531.17 1151.33 2531.17 1148.65 2532.01 1146.44 2533.68 1144.69 2535.36 1142.94 2537.44 1142.07 2539.93 1142.07ZM2539.93 1103.89C2542.42 1103.89 2544.5 1104.76 2546.17 1106.51 2547.85 1108.25 2548.68 1110.47 2548.68 1113.15 2548.68 1115.82 2547.85 1118.04 2546.17 1119.78 2544.5 1121.53 2542.42 1122.4 2539.93 1122.4 2537.44 1122.4 2535.36 1121.53 2533.68 1119.78 2532.01 1118.04 2531.17 1115.82 2531.17 1113.15 2531.17 1110.47 2532.01 1108.25 2533.68 1106.51 2535.36 1104.76 2537.44 1103.89 2539.93 1103.89ZM2539.93 1065.7C2542.42 1065.7 2544.5 1066.57 2546.17 1068.32 2547.85 1070.07 2548.68 1072.28 2548.68 1074.96 2548.68 1077.64 2547.85 1079.85 2546.17 1081.6 2544.5 1083.35 2542.42 1084.22 2539.93 1084.22 2537.44 1084.22 2535.36 1083.35 2533.68 1081.6 2532.01 1079.85 2531.17 1077.64 2531.17 1074.96 2531.17 1072.28 2532.01 1070.07 2533.68 1068.32 2535.36 1066.57 2537.44 1065.7 2539.93 1065.7Z" fill-rule="evenodd"/><text fill="#000000" fill-opacity="0" font-family="Arial,Arial_MSFontService,sans-serif" font-size="94.8896" x="2531.17" y="1148.73"></text><text font-family="Arial,Arial_MSFontService,sans-serif" font-weight="700" font-size="73" transform="matrix(1 0 0 1 441.075 438)">Input</text><text font-family="Arial,Arial_MSFontService,sans-serif" font-weight="400" font-size="73" transform="matrix(1 0 0 1 620.398 438)">: preceding </text><text font-family="Arial,Arial_MSFontService,sans-serif" font-weight="400" font-size="73" transform="matrix(1 0 0 1 441.075 525)">vehicle trajectory </text><path d="M1034.48 492.916C1032.05 492.916 1029.88 493.896 1027.95 495.857 1026.03 497.817 1024.51 500.461 1023.41 503.788 1022.3 507.115 1021.75 510.43 1021.75 513.733 1021.75 516.204 1022.09 518.052 1022.77 519.275 1023.45 520.499 1024.58 521.111 1026.17 521.111 1026.91 521.111 1027.66 520.951 1028.42 520.63 1029.18 520.309 1029.97 519.792 1030.79 519.079 1031.61 518.366 1032.42 517.499 1033.21 516.477 1034.01 515.455 1034.74 514.428 1035.4 513.394 1036.07 512.36 1036.69 511.137 1037.26 509.723 1037.83 508.309 1038.32 506.604 1038.72 504.608L1039.04 503.075C1039.4 501.364 1039.57 499.748 1039.57 498.227 1039.57 496.374 1039.18 495.025 1038.4 494.182 1037.61 493.338 1036.31 492.916 1034.48 492.916ZM1049.41 473.811 1051.52 473.811 1042.64 513.269C1042.12 515.598 1041.86 517.356 1041.86 518.545 1041.86 519.495 1042.01 520.184 1042.32 520.612 1042.63 521.04 1043.12 521.254 1043.78 521.254 1044.49 521.254 1045.25 520.963 1046.06 520.38 1046.87 519.798 1048.01 518.687 1049.48 517.048L1051.52 519.044C1049.33 521.349 1047.49 522.976 1045.99 523.927 1044.49 524.877 1042.88 525.353 1041.14 525.353 1039.67 525.353 1038.49 524.866 1037.61 523.891 1036.73 522.917 1036.3 521.622 1036.3 520.006 1036.3 518.699 1036.57 517.309 1037.11 515.836L1036.65 515.693C1034.37 519.02 1032.21 521.456 1030.16 523 1028.12 524.545 1025.96 525.317 1023.68 525.317 1021.06 525.317 1019.04 524.331 1017.6 522.359 1016.16 520.386 1015.44 517.618 1015.44 514.053 1015.44 509.966 1016.25 506.039 1017.85 502.273 1019.45 498.506 1021.66 495.536 1024.46 493.362 1027.27 491.187 1030.39 490.1 1033.84 490.1 1035.29 490.1 1036.62 490.249 1037.85 490.546 1039.07 490.843 1040.32 491.36 1041.61 492.096L1043.46 483.862C1043.65 483.078 1043.82 482.211 1043.96 481.26 1044.1 480.31 1044.17 479.478 1044.17 478.765 1044.17 478.052 1044.04 477.512 1043.78 477.143 1043.52 476.775 1043.14 476.508 1042.66 476.341 1042.17 476.175 1041.3 476.056 1040.04 475.985L1040.47 474.132Z" fill-rule="evenodd"/><text fill="#000000" fill-opacity="0" font-family="Arial,Arial_MSFontService,sans-serif" font-size="51.542" x="1015.44" y="518.91"></text><path d="M1075.65 516.792C1074.6 516.792 1073.63 517.107 1072.74 517.737 1071.85 518.367 1070.9 519.268 1069.88 520.441 1069.42 520.993 1068.99 521.537 1068.59 522.072 1068.19 522.607 1067.83 523.189 1067.51 523.819 1067.2 524.448 1066.91 525.147 1066.66 525.915 1066.41 526.682 1066.19 527.567 1066 528.567 1065.76 529.758 1065.57 530.758 1065.43 531.569 1065.29 532.38 1065.22 533.148 1065.22 533.872 1065.22 535.27 1065.55 536.258 1066.19 536.836 1066.84 537.414 1067.88 537.703 1069.31 537.703 1070.31 537.703 1071.25 537.483 1072.12 537.043 1072.99 536.603 1073.78 536.003 1074.49 535.244 1075.2 534.485 1075.83 533.601 1076.38 532.591 1076.93 531.582 1077.39 530.504 1077.76 529.357 1078.13 528.209 1078.42 527.032 1078.62 525.824 1078.81 524.616 1078.91 523.443 1078.91 522.305 1078.91 520.459 1078.66 519.078 1078.15 518.164 1077.64 517.25 1076.81 516.792 1075.65 516.792ZM1063.65 513.325C1064.9 513.325 1065.88 513.743 1066.58 514.58 1067.28 515.417 1067.63 516.516 1067.63 517.879 1067.63 518.276 1067.6 518.656 1067.54 519.018 1067.48 519.38 1067.37 519.743 1067.22 520.105L1067.58 520.286C1069.27 517.922 1070.93 516.171 1072.56 515.033 1074.19 513.894 1075.9 513.325 1077.7 513.325 1079.75 513.325 1081.33 514.067 1082.42 515.55 1083.52 517.034 1084.06 519.199 1084.06 522.046 1084.06 524.53 1083.68 526.872 1082.91 529.072 1082.14 531.272 1081.11 533.2 1079.79 534.856 1078.48 536.512 1076.96 537.819 1075.23 538.777 1073.49 539.734 1071.66 540.213 1069.73 540.213 1068.38 540.213 1067.21 540.079 1066.22 539.812 1065.23 539.544 1064.4 539.221 1063.75 538.841 1063.59 539.514 1063.43 540.213 1063.24 540.937 1063.06 541.662 1062.89 542.361 1062.73 543.034 1062.56 543.706 1062.43 544.328 1062.33 544.897 1062.22 545.466 1062.17 545.923 1062.17 546.268 1062.17 546.579 1062.22 546.838 1062.31 547.045 1062.41 547.252 1062.58 547.424 1062.83 547.562 1063.08 547.7 1063.41 547.808 1063.83 547.886 1064.24 547.964 1064.76 548.028 1065.38 548.08L1065.3 549.788 1056.19 549.788 1062.51 522.822C1062.71 521.873 1062.86 521.08 1062.95 520.441 1063.03 519.803 1063.08 519.234 1063.08 518.733 1063.08 517.474 1062.57 516.844 1061.55 516.844 1061.24 516.844 1060.93 516.909 1060.62 517.038 1060.31 517.168 1059.97 517.362 1059.62 517.621 1059.27 517.879 1058.88 518.207 1058.46 518.604 1058.03 519.001 1057.56 519.467 1057.05 520.001L1055.26 518.319C1056.12 517.457 1056.91 516.71 1057.63 516.081 1058.34 515.451 1059.03 514.933 1059.7 514.528 1060.36 514.123 1061.01 513.821 1061.64 513.622 1062.27 513.424 1062.94 513.325 1063.65 513.325Z" fill-rule="evenodd"/><text fill="#000000" fill-opacity="0" font-family="Arial,Arial_MSFontService,sans-serif" font-size="36.4634" x="1055.26" y="545.23"></text><text font-family="Arial,Arial_MSFontService,sans-serif" font-weight="700" font-size="73" transform="matrix(1 0 0 1 2205.6 442)">Output</text><text font-family="Arial,Arial_MSFontService,sans-serif" font-weight="400" font-size="73" transform="matrix(1 0 0 1 2446.23 442)">: ego vehicle </text><text font-family="Arial,Arial_MSFontService,sans-serif" font-weight="400" font-size="73" transform="matrix(1 0 0 1 2205.6 530)">optimal speed </text><path d="M2716.02 495.63C2717.73 495.63 2718.97 496.075 2719.73 496.966 2720.49 497.857 2720.87 499.052 2720.87 500.549 2720.87 501.689 2720.67 502.996 2720.26 504.47 2719.86 505.943 2719.29 507.499 2718.55 509.139 2717.82 510.779 2716.94 512.46 2715.92 514.183 2714.89 515.906 2713.77 517.581 2712.53 519.209 2711.29 520.836 2709.98 522.369 2708.57 523.807 2707.17 525.244 2705.72 526.498 2704.21 527.567 2702.7 528.637 2701.16 529.486 2699.61 530.116 2698.05 530.745 2696.5 531.06 2694.96 531.06 2694.27 531.06 2693.69 530.888 2693.23 530.544 2692.76 530.199 2692.39 529.712 2692.11 529.082 2691.82 528.452 2691.62 527.71 2691.5 526.854 2691.38 525.999 2691.32 525.06 2691.32 524.038 2691.32 522.684 2691.4 521.234 2691.57 519.69 2691.74 518.145 2691.95 516.589 2692.21 515.02L2693.71 505.147C2693.8 504.576 2693.88 504.036 2693.94 503.525 2694 503.014 2694.03 502.64 2694.03 502.402 2694.03 501.665 2693.91 501.06 2693.67 500.584 2693.44 500.109 2693.03 499.871 2692.46 499.871 2692.01 499.871 2691.52 500.008 2691 500.281 2690.48 500.555 2689.95 500.905 2689.41 501.333 2688.88 501.761 2688.36 502.218 2687.86 502.705 2687.36 503.192 2686.9 503.65 2686.47 504.077L2684.76 502.081C2685.5 501.321 2686.28 500.566 2687.11 499.818 2687.95 499.069 2688.83 498.392 2689.75 497.786 2690.68 497.18 2691.65 496.693 2692.68 496.325 2693.7 495.956 2694.74 495.772 2695.81 495.772 2696.72 495.772 2697.45 495.921 2698.02 496.218 2698.59 496.515 2699.04 496.907 2699.36 497.394 2699.68 497.881 2699.9 498.416 2700.02 498.998 2700.14 499.58 2700.2 500.157 2700.2 500.727 2700.2 501.06 2700.18 501.38 2700.16 501.689 2700.14 501.998 2700.1 502.283 2700.05 502.545L2698.06 515.448C2697.84 516.803 2697.67 518.127 2697.52 519.422 2697.38 520.718 2697.31 521.864 2697.31 522.862 2697.31 523.86 2697.37 524.668 2697.49 525.286 2697.61 525.904 2697.83 526.213 2698.16 526.213 2698.95 526.213 2699.94 525.898 2701.12 525.268 2702.31 524.638 2703.56 523.771 2704.87 522.666 2706.17 521.561 2707.48 520.254 2708.79 518.745 2710.09 517.236 2711.27 515.603 2712.32 513.844 2713.36 512.086 2714.21 510.232 2714.86 508.284 2715.52 506.335 2715.84 504.374 2715.84 502.402 2715.84 501.547 2715.66 500.887 2715.29 500.424 2714.92 499.961 2714.35 499.729 2713.56 499.729 2712.57 499.729 2711.64 500.115 2710.8 500.887 2709.96 501.66 2709.08 502.675 2708.18 503.935L2706.15 502.117C2706.72 501.262 2707.39 500.442 2708.16 499.658 2708.94 498.873 2709.76 498.184 2710.62 497.59 2711.49 496.996 2712.39 496.521 2713.31 496.164 2714.24 495.808 2715.14 495.63 2716.02 495.63Z" fill-rule="evenodd"/><text fill="#000000" fill-opacity="0" font-family="Arial,Arial_MSFontService,sans-serif" font-size="35.4307" x="2684.76" y="526.632"></text><text font-family="Arial,Arial_MSFontService,sans-serif" font-weight="700" font-size="73" transform="matrix(1 0 0 1 1309.7 1283)">Input</text><text font-family="Arial,Arial_MSFontService,sans-serif" font-weight="400" font-size="73" transform="matrix(1 0 0 1 1489.03 1283)">: ego vehicle </text><text font-family="Arial,Arial_MSFontService,sans-serif" font-weight="400" font-size="73" transform="matrix(1 0 0 1 1309.7 1371)">states</text><path d="M1065 857.25 1159.5 857.25 1159.5 835 1204 879.5 1159.5 924 1159.5 901.75 1065 901.75Z" fill="#636EFA" fill-rule="evenodd"/><path d="M1621.25 1209 1621.25 1148.5 1599 1148.5 1643.5 1104 1688 1148.5 1665.75 1148.5 1665.75 1209Z" fill="#7F7F7F" fill-rule="evenodd"/><path d="M2158 862.25 2252.5 862.25 2252.5 840 2297 884.5 2252.5 929 2252.5 906.75 2158 906.75Z" fill="#00CC96" fill-rule="evenodd"/></g></svg>